<svg width="23" height="21" viewBox="0 0 23 21" fill="none" xmlns="http://www.w3.org/2000/svg">
<g clip-path="url(#clip0_59111_1419)">
<mask id="mask0_59111_1419" style="mask-type:luminance" maskUnits="userSpaceOnUse" x="0" y="0" width="23" height="21">
<path d="M22.5562 0.0947571H0.464844V20.9375H22.5562V0.0947571Z" fill="white"/>
</mask>
<g mask="url(#mask0_59111_1419)">
<path d="M17.8047 6.934C18.9545 7.27856 19.909 7.40994 20.8101 7.34852C21.9438 7.27086 22.5449 6.67825 22.5487 5.63494C22.5502 5.16143 22.5257 4.68097 22.502 4.21638C22.4951 4.08534 22.4887 3.95433 22.4825 3.82332C22.4831 3.67445 22.4292 3.52963 22.3296 3.41181C22.2299 3.29399 22.09 3.20989 21.932 3.17281C21.7176 3.11398 21.4995 3.06626 21.2792 3.02992C18.9401 2.64375 17.1398 1.81828 15.7752 0.506287C15.5435 0.287736 15.2309 0.155901 14.8984 0.136505H14.8886C14.1849 0.144909 13.4729 0.213211 12.7841 0.279354L12.4343 0.312388C12.0332 0.349787 11.7917 0.589738 11.7721 0.970452C11.7629 1.14585 11.759 1.28009 11.7591 1.40557C11.7596 2.28987 11.7609 3.17417 11.763 4.05847C11.7671 6.15761 11.7715 8.32826 11.7573 10.4626C11.7507 11.4647 11.6922 12.475 11.5833 13.4652C11.5592 13.7179 11.4794 13.9635 11.3489 14.1873C11.2184 14.4111 11.0396 14.6086 10.8236 14.7679C10.5884 14.9343 10.319 15.0557 10.0313 15.125C9.74366 15.1943 9.44361 15.2099 9.14918 15.1709C7.96757 15.0346 7.3226 14.3937 7.11918 13.1538C7.00622 12.4659 7.156 11.8451 7.55327 11.3582C7.94374 10.8792 8.53762 10.5753 9.2704 10.4795C9.95353 10.3901 10.1621 10.1472 10.0968 9.51673C10.041 8.97953 9.95168 8.43728 9.86535 7.91301C9.80911 7.57154 9.75094 7.21832 9.70269 6.87088C9.65369 6.51706 9.4185 6.30697 9.00365 6.24654C8.74564 6.20996 8.48323 6.20755 8.22448 6.23945C5.07923 6.62664 2.76606 8.11549 1.34927 10.6647C0.327542 12.5023 0.204847 14.6117 1.01155 16.452C1.79478 18.2392 3.36473 19.591 5.43203 20.2584C6.70285 20.6763 8.04291 20.8918 9.39367 20.8954C10.8407 20.8954 12.3063 20.6438 13.8123 20.1407C15.5918 19.5459 16.6362 18.3315 16.9159 16.5314C17.3062 14.021 17.3681 11.9109 17.1105 9.89065C17.0172 9.15863 16.984 8.42132 16.9489 7.64073C16.9345 7.31859 16.9194 6.98669 16.9 6.64699C17.0002 6.67909 17.0925 6.70884 17.179 6.73665C17.4196 6.81431 17.6094 6.87558 17.8047 6.934ZM15.3378 7.5992C15.355 9.0687 15.373 10.5884 15.3519 12.0821L15.3507 12.1668C15.3323 13.5175 15.3125 14.9141 15.0285 16.2709C14.7687 17.5132 14.0663 18.2952 12.8813 18.6615C10.374 19.436 8.0691 19.4413 5.83447 18.6771C2.71672 17.6107 1.77683 14.9857 2.22842 12.8571C2.82129 10.0632 4.54801 8.28357 7.3607 7.56752C7.65526 7.49264 8.00504 7.40497 8.36063 7.32278C8.44566 7.30535 8.5317 7.29234 8.61834 7.28379C8.65358 7.2795 8.692 7.2748 8.73452 7.26942L8.85969 9.33571C8.82674 9.35083 8.79607 9.36571 8.76699 9.37974C8.70245 9.41529 8.63307 9.44286 8.56062 9.46186C6.56015 9.85913 5.41444 11.5998 5.77445 13.6948C5.87628 14.3013 6.15381 14.8721 6.57828 15.3478C7.00275 15.8236 7.55874 16.1873 8.18875 16.401C8.8474 16.6311 9.56085 16.699 10.2573 16.5974C10.9537 16.4959 11.6086 16.2287 12.156 15.8226C12.9333 15.2418 13.3119 14.5165 13.2509 13.7253C13.1808 12.8127 13.227 11.8873 13.2718 10.9925C13.3002 10.4238 13.3296 9.83593 13.329 9.25595C13.3275 7.76442 13.3211 6.24805 13.3148 4.78157C13.3118 4.08918 13.309 3.39684 13.3064 2.70455C13.3055 2.45241 13.3058 2.20028 13.3064 1.9415V1.62835C13.6676 1.50372 14.0222 1.52531 14.3657 1.54649C14.4946 1.55439 14.627 1.56245 14.7572 1.56245H14.7593L14.8626 1.6561C16.2264 2.89152 16.5161 3.15367 20.8955 4.47154L20.8328 5.58577C20.8052 5.5983 20.7801 5.61097 20.7564 5.62291C20.7192 5.64464 20.6784 5.66059 20.6355 5.67014C19.3363 5.58139 17.8383 5.42846 16.5026 4.73385C16.3136 4.645 16.114 4.57606 15.908 4.52842C15.7947 4.49758 15.6773 4.46564 15.5491 4.42538C15.5358 4.42119 15.5218 4.41975 15.5078 4.42116C15.4939 4.42255 15.4804 4.42678 15.4685 4.4335C15.4566 4.44022 15.4465 4.4493 15.4388 4.46006C15.4312 4.4708 15.4263 4.48299 15.4246 4.49567C15.4078 4.61114 15.3898 4.71217 15.3734 4.80386C15.3403 4.95904 15.3212 5.11642 15.3167 5.27447C15.3193 6.04942 15.3285 6.83727 15.3375 7.5992H15.3378Z" fill="white"/>
</g>
</g>
<defs>
<clipPath id="clip0_59111_1419">
<rect width="23" height="21" fill="white"/>
</clipPath>
</defs>
</svg>
